<mxfile host="app.diagrams.net" modified="2024-04-22T13:23:18.247Z" agent="Mozilla/5.0 (Macintosh; Intel Mac OS X 10_15_7) AppleWebKit/537.36 (KHTML, like Gecko) Chrome/124.0.0.0 Safari/537.36" etag="NjSA1McJF9MMA0C1_X31" version="24.2.7" type="device">
  <diagram name="Page-1" id="BJgCKTPpBeqWwAoh7zxY">
    <mxGraphModel dx="1242" dy="695" grid="1" gridSize="10" guides="1" tooltips="1" connect="1" arrows="1" fold="1" page="1" pageScale="1" pageWidth="850" pageHeight="1100" math="0" shadow="0">
      <root>
        <mxCell id="0" />
        <mxCell id="1" parent="0" />
        <mxCell id="sN9IWl-U-YtgcvdRtu7z-10" style="rounded=0;orthogonalLoop=1;jettySize=auto;html=1;exitX=0.5;exitY=0;exitDx=0;exitDy=0;entryX=0.5;entryY=1;entryDx=0;entryDy=0;endArrow=none;endFill=0;" edge="1" parent="1" source="sN9IWl-U-YtgcvdRtu7z-2" target="sN9IWl-U-YtgcvdRtu7z-5">
          <mxGeometry relative="1" as="geometry" />
        </mxCell>
        <mxCell id="sN9IWl-U-YtgcvdRtu7z-28" style="rounded=0;orthogonalLoop=1;jettySize=auto;html=1;exitX=1;exitY=0.5;exitDx=0;exitDy=0;entryX=0;entryY=0.5;entryDx=0;entryDy=0;endArrow=none;endFill=0;" edge="1" parent="1" source="sN9IWl-U-YtgcvdRtu7z-2" target="sN9IWl-U-YtgcvdRtu7z-3">
          <mxGeometry relative="1" as="geometry" />
        </mxCell>
        <mxCell id="sN9IWl-U-YtgcvdRtu7z-31" style="rounded=0;orthogonalLoop=1;jettySize=auto;html=1;exitX=0.75;exitY=1;exitDx=0;exitDy=0;entryX=0.25;entryY=0;entryDx=0;entryDy=0;endArrow=none;endFill=0;" edge="1" parent="1" source="sN9IWl-U-YtgcvdRtu7z-2" target="sN9IWl-U-YtgcvdRtu7z-4">
          <mxGeometry relative="1" as="geometry" />
        </mxCell>
        <mxCell id="sN9IWl-U-YtgcvdRtu7z-2" value="User Experience" style="rounded=1;whiteSpace=wrap;html=1;fillColor=#f5f5f5;fontColor=#333333;strokeColor=#666666;" vertex="1" parent="1">
          <mxGeometry x="200" y="130" width="120" height="60" as="geometry" />
        </mxCell>
        <mxCell id="sN9IWl-U-YtgcvdRtu7z-19" style="rounded=0;orthogonalLoop=1;jettySize=auto;html=1;exitX=1;exitY=0;exitDx=0;exitDy=0;entryX=0;entryY=0.5;entryDx=0;entryDy=0;endArrow=none;endFill=0;" edge="1" parent="1" source="sN9IWl-U-YtgcvdRtu7z-3" target="sN9IWl-U-YtgcvdRtu7z-16">
          <mxGeometry relative="1" as="geometry" />
        </mxCell>
        <mxCell id="sN9IWl-U-YtgcvdRtu7z-20" style="rounded=0;orthogonalLoop=1;jettySize=auto;html=1;exitX=1;exitY=1;exitDx=0;exitDy=0;entryX=0;entryY=0.5;entryDx=0;entryDy=0;endArrow=none;endFill=0;" edge="1" parent="1" source="sN9IWl-U-YtgcvdRtu7z-3" target="sN9IWl-U-YtgcvdRtu7z-17">
          <mxGeometry relative="1" as="geometry" />
        </mxCell>
        <mxCell id="sN9IWl-U-YtgcvdRtu7z-32" style="rounded=0;orthogonalLoop=1;jettySize=auto;html=1;exitX=0.25;exitY=1;exitDx=0;exitDy=0;entryX=0.75;entryY=0;entryDx=0;entryDy=0;endArrow=none;endFill=0;" edge="1" parent="1" source="sN9IWl-U-YtgcvdRtu7z-3" target="sN9IWl-U-YtgcvdRtu7z-4">
          <mxGeometry relative="1" as="geometry" />
        </mxCell>
        <mxCell id="sN9IWl-U-YtgcvdRtu7z-3" value="Engagement and Motivation" style="rounded=1;whiteSpace=wrap;html=1;fillColor=#f5f5f5;fontColor=#333333;strokeColor=#666666;" vertex="1" parent="1">
          <mxGeometry x="360" y="130" width="120" height="60" as="geometry" />
        </mxCell>
        <mxCell id="sN9IWl-U-YtgcvdRtu7z-24" style="rounded=0;orthogonalLoop=1;jettySize=auto;html=1;exitX=0.25;exitY=1;exitDx=0;exitDy=0;entryX=0.5;entryY=0;entryDx=0;entryDy=0;endArrow=none;endFill=0;" edge="1" parent="1" source="sN9IWl-U-YtgcvdRtu7z-4" target="sN9IWl-U-YtgcvdRtu7z-22">
          <mxGeometry relative="1" as="geometry" />
        </mxCell>
        <mxCell id="sN9IWl-U-YtgcvdRtu7z-25" style="rounded=0;orthogonalLoop=1;jettySize=auto;html=1;exitX=0.75;exitY=1;exitDx=0;exitDy=0;entryX=0.5;entryY=0;entryDx=0;entryDy=0;endArrow=none;endFill=0;" edge="1" parent="1" source="sN9IWl-U-YtgcvdRtu7z-4" target="sN9IWl-U-YtgcvdRtu7z-21">
          <mxGeometry relative="1" as="geometry" />
        </mxCell>
        <mxCell id="sN9IWl-U-YtgcvdRtu7z-26" style="rounded=0;orthogonalLoop=1;jettySize=auto;html=1;exitX=1;exitY=0.5;exitDx=0;exitDy=0;entryX=0;entryY=0;entryDx=0;entryDy=0;endArrow=none;endFill=0;" edge="1" parent="1" source="sN9IWl-U-YtgcvdRtu7z-4" target="sN9IWl-U-YtgcvdRtu7z-23">
          <mxGeometry relative="1" as="geometry" />
        </mxCell>
        <mxCell id="sN9IWl-U-YtgcvdRtu7z-33" style="rounded=0;orthogonalLoop=1;jettySize=auto;html=1;exitX=0;exitY=0.5;exitDx=0;exitDy=0;entryX=1;entryY=0;entryDx=0;entryDy=0;endArrow=none;endFill=0;" edge="1" parent="1" source="sN9IWl-U-YtgcvdRtu7z-4" target="sN9IWl-U-YtgcvdRtu7z-27">
          <mxGeometry relative="1" as="geometry" />
        </mxCell>
        <mxCell id="sN9IWl-U-YtgcvdRtu7z-4" value="Functional and Practical Application" style="rounded=1;whiteSpace=wrap;html=1;fillColor=#f5f5f5;fontColor=#333333;strokeColor=#666666;" vertex="1" parent="1">
          <mxGeometry x="280" y="230" width="120" height="60" as="geometry" />
        </mxCell>
        <mxCell id="sN9IWl-U-YtgcvdRtu7z-5" value="First Impressions" style="rounded=1;whiteSpace=wrap;html=1;" vertex="1" parent="1">
          <mxGeometry x="200" y="20" width="120" height="60" as="geometry" />
        </mxCell>
        <mxCell id="sN9IWl-U-YtgcvdRtu7z-13" style="rounded=0;orthogonalLoop=1;jettySize=auto;html=1;exitX=1;exitY=0.5;exitDx=0;exitDy=0;entryX=0;entryY=0;entryDx=0;entryDy=0;endArrow=none;endFill=0;" edge="1" parent="1" source="sN9IWl-U-YtgcvdRtu7z-6" target="sN9IWl-U-YtgcvdRtu7z-2">
          <mxGeometry relative="1" as="geometry" />
        </mxCell>
        <mxCell id="sN9IWl-U-YtgcvdRtu7z-6" value="Usability and Accessibility" style="rounded=1;whiteSpace=wrap;html=1;" vertex="1" parent="1">
          <mxGeometry x="40" y="80" width="120" height="60" as="geometry" />
        </mxCell>
        <mxCell id="sN9IWl-U-YtgcvdRtu7z-14" style="rounded=0;orthogonalLoop=1;jettySize=auto;html=1;exitX=1;exitY=0.5;exitDx=0;exitDy=0;entryX=0;entryY=1;entryDx=0;entryDy=0;endArrow=none;endFill=0;" edge="1" parent="1" source="sN9IWl-U-YtgcvdRtu7z-7" target="sN9IWl-U-YtgcvdRtu7z-2">
          <mxGeometry relative="1" as="geometry" />
        </mxCell>
        <mxCell id="sN9IWl-U-YtgcvdRtu7z-7" value="Customization and Personalization" style="rounded=1;whiteSpace=wrap;html=1;" vertex="1" parent="1">
          <mxGeometry x="40" y="180" width="120" height="60" as="geometry" />
        </mxCell>
        <mxCell id="sN9IWl-U-YtgcvdRtu7z-15" value="Feature Feedback" style="rounded=1;whiteSpace=wrap;html=1;" vertex="1" parent="1">
          <mxGeometry x="360" y="20" width="120" height="60" as="geometry" />
        </mxCell>
        <mxCell id="sN9IWl-U-YtgcvdRtu7z-16" value="Motivational Aspects" style="rounded=1;whiteSpace=wrap;html=1;" vertex="1" parent="1">
          <mxGeometry x="520" y="80" width="120" height="60" as="geometry" />
        </mxCell>
        <mxCell id="sN9IWl-U-YtgcvdRtu7z-17" value="Social and Collaborative Features" style="rounded=1;whiteSpace=wrap;html=1;" vertex="1" parent="1">
          <mxGeometry x="520" y="180" width="120" height="60" as="geometry" />
        </mxCell>
        <mxCell id="sN9IWl-U-YtgcvdRtu7z-18" style="rounded=0;orthogonalLoop=1;jettySize=auto;html=1;exitX=0.5;exitY=0;exitDx=0;exitDy=0;entryX=0.5;entryY=1;entryDx=0;entryDy=0;endArrow=none;endFill=0;" edge="1" parent="1" source="sN9IWl-U-YtgcvdRtu7z-3" target="sN9IWl-U-YtgcvdRtu7z-15">
          <mxGeometry relative="1" as="geometry" />
        </mxCell>
        <mxCell id="sN9IWl-U-YtgcvdRtu7z-21" value="Potential Use Cases" style="rounded=1;whiteSpace=wrap;html=1;" vertex="1" parent="1">
          <mxGeometry x="360" y="380" width="120" height="60" as="geometry" />
        </mxCell>
        <mxCell id="sN9IWl-U-YtgcvdRtu7z-22" value="Technical Issues and Bugs" style="rounded=1;whiteSpace=wrap;html=1;" vertex="1" parent="1">
          <mxGeometry x="200" y="380" width="120" height="60" as="geometry" />
        </mxCell>
        <mxCell id="sN9IWl-U-YtgcvdRtu7z-23" value="Suggestions for Improvement" style="rounded=1;whiteSpace=wrap;html=1;" vertex="1" parent="1">
          <mxGeometry x="440" y="280" width="120" height="60" as="geometry" />
        </mxCell>
        <mxCell id="sN9IWl-U-YtgcvdRtu7z-27" value="Health Management" style="rounded=1;whiteSpace=wrap;html=1;" vertex="1" parent="1">
          <mxGeometry x="120" y="280" width="120" height="60" as="geometry" />
        </mxCell>
      </root>
    </mxGraphModel>
  </diagram>
</mxfile>
